<?xml version="1.0" encoding="UTF-8"?>
<svg id="Layer_1" xmlns="http://www.w3.org/2000/svg" version="1.1" viewBox="0 0 164 164">
  <!-- Generator: Adobe Illustrator 29.0.1, SVG Export Plug-In . SVG Version: 2.1.0 Build 192)  -->
  <defs>
    <style>
      .st0 {
        fill: #e6e6e6;
      }

      .st1 {
        fill: #f2f2f2;
      }
    </style>
  </defs>
  <path class="st0" d="M82,27.7c29.9,0,54.3,24.3,54.3,54.3s-24.3,54.3-54.3,54.3-54.3-24.3-54.3-54.3,24.3-54.3,54.3-54.3M82,23c-32.6,0-59,26.4-59,59s26.4,59,59,59,59-26.4,59-59-26.4-59-59-59h0Z"/>
  <path class="st1" d="M82,14.3c37.3,0,67.7,30.4,67.7,67.7s-30.4,67.7-67.7,67.7S14.3,119.3,14.3,82,44.7,14.3,82,14.3M82,8C41.1,8,8,41.1,8,82s33.1,74,74,74,74-33.1,74-74S122.9,8,82,8h0Z"/>
</svg>