<?xml version="1.0" encoding="utf-8"?>
<!-- Generator: Adobe Adobe Illustrator 24.2.0, SVG Export Plug-In . SVG Version: 6.00 Build 0)  -->
<svg version="1.1" id="Layer_1" xmlns="http://www.w3.org/2000/svg" xmlns:xlink="http://www.w3.org/1999/xlink" x="0px" y="0px"
	 width="400px" height="400px" viewBox="0 0 400 400" style="enable-background:new 0 0 400 400;" xml:space="preserve">
<style type="text/css">
	.st0{fill:#FFFFFF;}
</style>
<g>
	<path d="M343.97,231.97c0.96,20.79-0.27,68.48,28.15,78.35c17.41,6.05,29.23,2.74,29.23,2.74s-13.33,10.29-46.45,4.06
		c-5.59-1.05-30.54-10.29-35.64-37.31c-2.64-14-19.22-192.94-19.22-192.94l-99.31,210.62c-8.41,17.62-9.61,21.22-13.21,21.22
		c-2.8,0-4.8-4-12.41-18.42c-10.41-19.62-44.85-88.89-46.85-92.9c-3.6-7.21-49.65-106.11-54.06-116.92l-16.42,188.6
		c-0.4,6.41-0.8,12.01-0.8,18.82c0,12.37,1.15,32.12,3.68,34.28c13.3,11.31-7.49,47.22-18.16,55.48c-1.64,1.27-3.9,1.49-5.73,0.51
		c-13.55-7.26-35.09-45.05-18.8-59.66c7.76-7.12,13.39-32.62,15.39-49.03L62.19,19.21c0.4-4.41,2-8.01,4.41-8.01
		c2.4,0,4,1.6,6.01,6.01l122.53,251.87L312.86,17.61c1.6-3.6,3.2-6.41,6.01-6.41s4,3.2,4.8,10.81
		C323.67,22.02,341.53,179.29,343.97,231.97z"/>
	<path class="st0" d="M32.36,363.56c0.63-0.06,0.86-9.2-11.1-8.64C19.74,354.99,24.84,364.26,32.36,363.56z"/>
	<path class="st0" d="M46.07,363.56c-0.63-0.06-0.86-9.2,11.1-8.64C58.69,354.99,53.59,364.26,46.07,363.56z"/>
</g>
</svg>
