<?xml version="1.0" encoding="UTF-8"?>
<svg id="Layer_2" data-name="Layer 2" xmlns="http://www.w3.org/2000/svg" viewBox="0 0 389.22 377.59">
  <defs>
    <style>
      .cls-1 {
        fill: #fff;
      }
    </style>
  </defs>
  <g id="Layer_3" data-name="Layer 3">
    <g>
      <path class="cls-1" d="M331.84,220.77c.96,20.79-.27,68.48,28.15,78.35,17.41,6.05,29.23,2.74,29.23,2.74,0,0-13.33,10.29-46.45,4.06-5.59-1.05-30.54-10.29-35.64-37.31-2.64-14-19.22-192.94-19.22-192.94l-99.31,210.62c-8.41,17.62-9.61,21.22-13.21,21.22-2.8,0-4.8-4-12.41-18.42-10.41-19.62-44.85-88.89-46.85-92.9-3.6-7.21-49.65-106.11-54.06-116.92l-16.42,188.6c-.4,6.41-.8,12.01-.8,18.82,0,12.37,1.15,32.12,3.68,34.28,13.3,11.31-7.49,47.22-18.16,55.48-1.64,1.27-3.9,1.49-5.73.51-13.55-7.26-35.09-45.05-18.8-59.66,7.76-7.12,13.39-32.62,15.39-49.03L50.06,8.01c.4-4.41,2-8.01,4.41-8.01s4,1.6,6.01,6.01l122.53,251.87L300.73,6.41c1.6-3.6,3.2-6.41,6.01-6.41s4,3.2,4.8,10.81c0,0,17.86,157.28,20.3,209.96Z"/>
      <path d="M20.23,352.35c.63-.06.86-9.2-11.1-8.64-1.51.07,3.59,9.35,11.1,8.64Z"/>
      <path d="M33.94,352.35c-.63-.06-.86-9.2,11.1-8.64,1.51.07-3.59,9.35-11.1,8.64Z"/>
    </g>
  </g>
</svg>